<?xml version="1.0" encoding="UTF-8" standalone="no"?>
<!DOCTYPE svg PUBLIC "-//W3C//DTD SVG 1.1//EN"
 "http://www.w3.org/Graphics/SVG/1.1/DTD/svg11.dtd">
<!-- Generated by graphviz version 2.40.1 (20161225.0304)
 -->
<!-- Title: state transitions Pages: 1 -->
<svg width="448pt" height="446pt"
 viewBox="0.00 0.00 448.18 446.00" xmlns="http://www.w3.org/2000/svg" xmlns:xlink="http://www.w3.org/1999/xlink">
<g id="graph0" class="graph" transform="scale(1 1) rotate(0) translate(4 442)">
<title>state transitions</title>
<polygon fill="#ffffff" stroke="transparent" points="-4,4 -4,-442 444.181,-442 444.181,4 -4,4"/>
<g id="clust1" class="cluster state regular">
<title>cluster_state</title>
<path fill="none" stroke="#000000" stroke-width="2" d="M20,-8C20,-8 294,-8 294,-8 300,-8 306,-14 306,-20 306,-20 306,-418 306,-418 306,-424 300,-430 294,-430 294,-430 20,-430 20,-430 14,-430 8,-424 8,-418 8,-418 8,-20 8,-20 8,-14 14,-8 20,-8"/>
<text text-anchor="start" x="143.9944" y="-411.2" font-family="Helvetica,sans-Serif" font-size="12.00" fill="#000000">state</text>
</g>
<!-- state -->
<!-- IDLE -->
<g id="node2" class="node state regular">
<title>IDLE</title>
<polygon fill="#ffffff" fill-opacity="0.003922" stroke="transparent" stroke-width="2" points="164,-392 108,-392 108,-356 164,-356 164,-392"/>
<text text-anchor="start" x="122.6644" y="-370.2" font-family="Helvetica,sans-Serif" font-size="12.00" fill="#000000">IDLE</text>
<path fill="none" stroke="#000000" stroke-width="2" d="M120.3333,-357C120.3333,-357 151.6667,-357 151.6667,-357 157.3333,-357 163,-362.6667 163,-368.3333 163,-368.3333 163,-379.6667 163,-379.6667 163,-385.3333 157.3333,-391 151.6667,-391 151.6667,-391 120.3333,-391 120.3333,-391 114.6667,-391 109,-385.3333 109,-379.6667 109,-379.6667 109,-368.3333 109,-368.3333 109,-362.6667 114.6667,-357 120.3333,-357"/>
</g>
<!-- SUM_1 -->
<g id="node3" class="node state regular">
<title>SUM_1</title>
<polygon fill="#ffffff" fill-opacity="0.003922" stroke="transparent" stroke-width="2" points="82,-298 20,-298 20,-262 82,-262 82,-298"/>
<text text-anchor="start" x="30.999" y="-276.2" font-family="Helvetica,sans-Serif" font-size="12.00" fill="#000000">SUM_1</text>
<path fill="none" stroke="#000000" stroke-width="2" d="M32.3333,-263C32.3333,-263 69.6667,-263 69.6667,-263 75.3333,-263 81,-268.6667 81,-274.3333 81,-274.3333 81,-285.6667 81,-285.6667 81,-291.3333 75.3333,-297 69.6667,-297 69.6667,-297 32.3333,-297 32.3333,-297 26.6667,-297 21,-291.3333 21,-285.6667 21,-285.6667 21,-274.3333 21,-274.3333 21,-268.6667 26.6667,-263 32.3333,-263"/>
</g>
<!-- IDLE&#45;&gt;SUM_1 -->
<g id="edge1" class="edge transition">
<title>IDLE&#45;&gt;SUM_1</title>
<path fill="none" stroke="#000000" d="M107.6789,-369.4289C89.5588,-364.9233 67.2532,-356.1021 55.142,-339 48.911,-330.2012 47.0945,-318.6947 47.1196,-308.1819"/>
<polygon fill="#000000" stroke="#000000" points="50.6175,-308.3119 47.6631,-298.1374 43.6278,-307.9336 50.6175,-308.3119"/>
<text text-anchor="start" x="55" y="-330" font-family="Helvetica,sans-Serif" font-size="10.00" fill="#000000">start_reg = &#39;1&#39; &#160;&#160;</text>
<text text-anchor="start" x="55" y="-318" font-family="Helvetica,sans-Serif" font-size="10.00" fill="#000000">not (delay_counter &lt; N_WORDS&#45;1) &#160;&#160;</text>
</g>
<!-- SUM_1B -->
<g id="node4" class="node state regular">
<title>SUM_1B</title>
<polygon fill="#ffffff" fill-opacity="0.003922" stroke="transparent" stroke-width="2" points="86,-216 16,-216 16,-180 86,-180 86,-216"/>
<text text-anchor="start" x="26.9976" y="-194.2" font-family="Helvetica,sans-Serif" font-size="12.00" fill="#000000">SUM_1B</text>
<path fill="none" stroke="#000000" stroke-width="2" d="M28.3333,-181C28.3333,-181 73.6667,-181 73.6667,-181 79.3333,-181 85,-186.6667 85,-192.3333 85,-192.3333 85,-203.6667 85,-203.6667 85,-209.3333 79.3333,-215 73.6667,-215 73.6667,-215 28.3333,-215 28.3333,-215 22.6667,-215 17,-209.3333 17,-203.6667 17,-203.6667 17,-192.3333 17,-192.3333 17,-186.6667 22.6667,-181 28.3333,-181"/>
</g>
<!-- SUM_1&#45;&gt;SUM_1B -->
<g id="edge2" class="edge transition">
<title>SUM_1&#45;&gt;SUM_1B</title>
<path fill="none" stroke="#000000" d="M51,-261.8015C51,-251.3976 51,-238.1215 51,-226.3768"/>
<polygon fill="#000000" stroke="#000000" points="54.5001,-226.1476 51,-216.1476 47.5001,-226.1476 54.5001,-226.1476"/>
<text text-anchor="middle" x="52.3895" y="-236" font-family="Helvetica,sans-Serif" font-size="10.00" fill="#000000"> </text>
</g>
<!-- SUM_2 -->
<g id="node5" class="node state regular">
<title>SUM_2</title>
<polygon fill="#ffffff" fill-opacity="0.003922" stroke="transparent" stroke-width="2" points="78,-134 16,-134 16,-98 78,-98 78,-134"/>
<text text-anchor="start" x="26.999" y="-112.2" font-family="Helvetica,sans-Serif" font-size="12.00" fill="#000000">SUM_2</text>
<path fill="none" stroke="#000000" stroke-width="2" d="M28.3333,-99C28.3333,-99 65.6667,-99 65.6667,-99 71.3333,-99 77,-104.6667 77,-110.3333 77,-110.3333 77,-121.6667 77,-121.6667 77,-127.3333 71.3333,-133 65.6667,-133 65.6667,-133 28.3333,-133 28.3333,-133 22.6667,-133 17,-127.3333 17,-121.6667 17,-121.6667 17,-110.3333 17,-110.3333 17,-104.6667 22.6667,-99 28.3333,-99"/>
</g>
<!-- SUM_1B&#45;&gt;SUM_2 -->
<g id="edge3" class="edge transition">
<title>SUM_1B&#45;&gt;SUM_2</title>
<path fill="none" stroke="#000000" d="M50.1123,-179.8015C49.6048,-169.3976 48.9571,-156.1215 48.3842,-144.3768"/>
<polygon fill="#000000" stroke="#000000" points="51.8684,-143.9651 47.8852,-134.1476 44.8767,-144.3063 51.8684,-143.9651"/>
<text text-anchor="middle" x="50.3895" y="-154" font-family="Helvetica,sans-Serif" font-size="10.00" fill="#000000"> </text>
</g>
<!-- SUM_3 -->
<g id="node6" class="node state regular">
<title>SUM_3</title>
<polygon fill="#ffffff" fill-opacity="0.003922" stroke="transparent" stroke-width="2" points="132,-52 70,-52 70,-16 132,-16 132,-52"/>
<text text-anchor="start" x="80.999" y="-30.2" font-family="Helvetica,sans-Serif" font-size="12.00" fill="#000000">SUM_3</text>
<path fill="none" stroke="#000000" stroke-width="2" d="M82.3333,-17C82.3333,-17 119.6667,-17 119.6667,-17 125.3333,-17 131,-22.6667 131,-28.3333 131,-28.3333 131,-39.6667 131,-39.6667 131,-45.3333 125.3333,-51 119.6667,-51 119.6667,-51 82.3333,-51 82.3333,-51 76.6667,-51 71,-45.3333 71,-39.6667 71,-39.6667 71,-28.3333 71,-28.3333 71,-22.6667 76.6667,-17 82.3333,-17"/>
</g>
<!-- SUM_2&#45;&gt;SUM_3 -->
<g id="edge4" class="edge transition">
<title>SUM_2&#45;&gt;SUM_3</title>
<path fill="none" stroke="#000000" d="M58.9844,-97.8015C66.1853,-86.8668 75.4756,-72.7593 83.4884,-60.5916"/>
<polygon fill="#000000" stroke="#000000" points="86.4723,-62.4243 89.0492,-52.1476 80.6261,-58.5743 86.4723,-62.4243"/>
<text text-anchor="middle" x="78.3895" y="-72" font-family="Helvetica,sans-Serif" font-size="10.00" fill="#000000"> </text>
</g>
<!-- SUM_3&#45;&gt;IDLE -->
<g id="edge6" class="edge transition">
<title>SUM_3&#45;&gt;IDLE</title>
<path fill="none" stroke="#000000" d="M132.0568,-37.327C187.3235,-43.6707 297,-58.3566 297,-75 297,-142.5 297,-142.5 297,-142.5 297,-235.9785 287.8356,-272.6382 222,-339 218.2343,-342.7958 195.2711,-352.0586 174.0214,-360.1018"/>
<polygon fill="#000000" stroke="#000000" points="172.5893,-356.9007 164.4536,-363.6875 175.0459,-363.4555 172.5893,-356.9007"/>
<text text-anchor="start" x="296" y="-201" font-family="Helvetica,sans-Serif" font-size="10.00" fill="#000000">delay_counter = 0 &#160;&#160;</text>
<text text-anchor="start" x="296" y="-189" font-family="Helvetica,sans-Serif" font-size="10.00" fill="#000000">not (i_counter &lt; N_WORDS&#45;1) &#160;&#160;</text>
</g>
<!-- SUM_3&#45;&gt;SUM_1 -->
<g id="edge5" class="edge transition">
<title>SUM_3&#45;&gt;SUM_1</title>
<path fill="none" stroke="#000000" d="M101.2105,-52.2165C101.6206,-95.2597 102.0848,-200.7879 97,-216 92.4025,-229.7542 83.7275,-243.0893 75.1391,-253.9949"/>
<polygon fill="#000000" stroke="#000000" points="72.3363,-251.892 68.6574,-261.8276 77.7293,-256.3547 72.3363,-251.892"/>
<text text-anchor="start" x="101" y="-154" font-family="Helvetica,sans-Serif" font-size="10.00" fill="#000000">not (delay_counter &lt; DELAY_SUM_3_1) &#160;&#160;</text>
</g>
</g>
</svg>
