<?xml version="1.0" encoding="UTF-8" standalone="no"?>
<!DOCTYPE svg PUBLIC "-//W3C//DTD SVG 1.1//EN"
 "http://www.w3.org/Graphics/SVG/1.1/DTD/svg11.dtd">
<!-- Generated by graphviz version 2.40.1 (20161225.0304)
 -->
<!-- Title: state transitions Pages: 1 -->
<svg width="373pt" height="282pt"
 viewBox="0.00 0.00 373.29 282.00" xmlns="http://www.w3.org/2000/svg" xmlns:xlink="http://www.w3.org/1999/xlink">
<g id="graph0" class="graph" transform="scale(1 1) rotate(0) translate(4 278)">
<title>state transitions</title>
<polygon fill="#ffffff" stroke="transparent" points="-4,4 -4,-278 369.291,-278 369.291,4 -4,4"/>
<g id="clust1" class="cluster state regular">
<title>cluster_state</title>
<path fill="none" stroke="#000000" stroke-width="2" d="M20,-8C20,-8 293,-8 293,-8 299,-8 305,-14 305,-20 305,-20 305,-254 305,-254 305,-260 299,-266 293,-266 293,-266 20,-266 20,-266 14,-266 8,-260 8,-254 8,-254 8,-20 8,-20 8,-14 14,-8 20,-8"/>
<text text-anchor="start" x="143.4944" y="-247.2" font-family="Helvetica,sans-Serif" font-size="12.00" fill="#000000">state</text>
</g>
<!-- state -->
<!-- IDLE -->
<g id="node2" class="node state regular">
<title>IDLE</title>
<polygon fill="#ffffff" fill-opacity="0.003922" stroke="transparent" stroke-width="2" points="161,-228 105,-228 105,-192 161,-192 161,-228"/>
<text text-anchor="start" x="119.6644" y="-206.2" font-family="Helvetica,sans-Serif" font-size="12.00" fill="#000000">IDLE</text>
<path fill="none" stroke="#000000" stroke-width="2" d="M117.3333,-193C117.3333,-193 148.6667,-193 148.6667,-193 154.3333,-193 160,-198.6667 160,-204.3333 160,-204.3333 160,-215.6667 160,-215.6667 160,-221.3333 154.3333,-227 148.6667,-227 148.6667,-227 117.3333,-227 117.3333,-227 111.6667,-227 106,-221.3333 106,-215.6667 106,-215.6667 106,-204.3333 106,-204.3333 106,-198.6667 111.6667,-193 117.3333,-193"/>
</g>
<!-- SUB_STATE -->
<g id="node3" class="node state regular">
<title>SUB_STATE</title>
<polygon fill="#ffffff" fill-opacity="0.003922" stroke="transparent" stroke-width="2" points="108,-134 16,-134 16,-98 108,-98 108,-134"/>
<text text-anchor="start" x="26.9954" y="-112.2" font-family="Helvetica,sans-Serif" font-size="12.00" fill="#000000">SUB_STATE</text>
<path fill="none" stroke="#000000" stroke-width="2" d="M28.3333,-99C28.3333,-99 95.6667,-99 95.6667,-99 101.3333,-99 107,-104.6667 107,-110.3333 107,-110.3333 107,-121.6667 107,-121.6667 107,-127.3333 101.3333,-133 95.6667,-133 95.6667,-133 28.3333,-133 28.3333,-133 22.6667,-133 17,-127.3333 17,-121.6667 17,-121.6667 17,-110.3333 17,-110.3333 17,-104.6667 22.6667,-99 28.3333,-99"/>
</g>
<!-- IDLE&#45;&gt;SUB_STATE -->
<g id="edge1" class="edge transition">
<title>IDLE&#45;&gt;SUB_STATE</title>
<path fill="none" stroke="#000000" d="M104.7747,-205.3398C87.1219,-200.8087 65.7099,-191.9928 54.692,-175 48.8382,-165.9717 48.9639,-154.5124 51.1699,-144.0991"/>
<polygon fill="#000000" stroke="#000000" points="54.6256,-144.735 53.9249,-134.1634 47.8801,-142.8646 54.6256,-144.735"/>
<text text-anchor="start" x="54" y="-166" font-family="Helvetica,sans-Serif" font-size="10.00" fill="#000000">wait_counter = CLK_TO_WAIT &#45; 1 &#160;&#160;</text>
<text text-anchor="start" x="54" y="-154" font-family="Helvetica,sans-Serif" font-size="10.00" fill="#000000">start_reg = &#39;1&#39; &#160;&#160;</text>
</g>
<!-- COMPARE_STATE -->
<g id="node4" class="node state regular">
<title>COMPARE_STATE</title>
<polygon fill="#ffffff" fill-opacity="0.003922" stroke="transparent" stroke-width="2" points="200,-52 72,-52 72,-16 200,-16 200,-52"/>
<text text-anchor="start" x="82.9978" y="-30.2" font-family="Helvetica,sans-Serif" font-size="12.00" fill="#000000">COMPARE_STATE</text>
<path fill="none" stroke="#000000" stroke-width="2" d="M84.3333,-17C84.3333,-17 187.6667,-17 187.6667,-17 193.3333,-17 199,-22.6667 199,-28.3333 199,-28.3333 199,-39.6667 199,-39.6667 199,-45.3333 193.3333,-51 187.6667,-51 187.6667,-51 84.3333,-51 84.3333,-51 78.6667,-51 73,-45.3333 73,-39.6667 73,-39.6667 73,-28.3333 73,-28.3333 73,-22.6667 78.6667,-17 84.3333,-17"/>
</g>
<!-- SUB_STATE&#45;&gt;COMPARE_STATE -->
<g id="edge2" class="edge transition">
<title>SUB_STATE&#45;&gt;COMPARE_STATE</title>
<path fill="none" stroke="#000000" d="M53.8537,-97.7593C51.0085,-88.4756 49.7351,-77.4073 55.254,-69 57.9423,-64.9048 61.2238,-61.2864 64.9077,-58.0896"/>
<polygon fill="#000000" stroke="#000000" points="67.0302,-60.8729 72.9735,-52.1021 62.8579,-55.2523 67.0302,-60.8729"/>
<text text-anchor="start" x="55" y="-72" font-family="Helvetica,sans-Serif" font-size="10.00" fill="#000000">read_counter = N_WORDS &#160;&#160;</text>
</g>
<!-- COMPARE_STATE&#45;&gt;IDLE -->
<g id="edge3" class="edge transition">
<title>COMPARE_STATE&#45;&gt;IDLE</title>
<path fill="none" stroke="#000000" d="M168.1169,-52.1083C174.6913,-56.9372 181.0919,-62.6156 186,-69 211.8049,-102.567 235.0948,-146.2248 216,-175 213.1634,-179.2746 191.428,-188.3627 170.9132,-196.2067"/>
<polygon fill="#000000" stroke="#000000" points="169.4609,-193.0137 161.338,-199.8158 171.9299,-199.5638 169.4609,-193.0137"/>
<text text-anchor="start" x="220" y="-113" font-family="Helvetica,sans-Serif" font-size="10.00" fill="#000000">write_counter = N_WORDS &#45; 1 &#160;&#160;</text>
</g>
</g>
</svg>
